<svg xmlns="http://www.w3.org/2000/svg" viewBox="0 0 640 360" width="640" height="360" role="img" aria-labelledby="cheltenham-home-affordability-title cheltenham-home-affordability-desc">
<title id="cheltenham-home-affordability-title">Cheltenham homes sold within reach of a typical earner</title>
<desc id="cheltenham-home-affordability-desc">% of sales at no more than 4.5 times median full-time pay. Source: HM Land Registry; ONS ASHE via Nomis (OGL v3.0)</desc>

<style>
  .bg { fill: #fcfcfb; }
  .t1 { fill: #0b0b0b; font: 600 17px system-ui, -apple-system, 'Segoe UI', Roboto, sans-serif; }
  .t2 { fill: #52514e; font: 13px system-ui, -apple-system, 'Segoe UI', Roboto, sans-serif; }
  .lab { fill: #0b0b0b; font: 12px system-ui, -apple-system, 'Segoe UI', Roboto, sans-serif; }
  .val { fill: #0b0b0b; font: 600 12px system-ui, -apple-system, 'Segoe UI', Roboto, sans-serif; }
  .ax { fill: #52514e; font: 11px system-ui, -apple-system, 'Segoe UI', Roboto, sans-serif; }
  .src { fill: #52514e; font: 11px system-ui, -apple-system, 'Segoe UI', Roboto, sans-serif; }
  .grid { stroke: #e4e3df; stroke-width: 1; }
  .base { stroke: #8a8984; stroke-width: 1; }
  .s1 { fill: #ca3393; }
  .s2 { fill: #2a78d6; }
  .mute { fill: #b9b8b3; }
  .line { fill: none; stroke: #ca3393; stroke-width: 2; }
  .dot { fill: #ca3393; stroke: #fcfcfb; stroke-width: 2; }
  .hatch { stroke: #fcfcfb; stroke-width: 2; }
</style>

<defs><pattern id="hatch" width="6" height="6" patternUnits="userSpaceOnUse" patternTransform="rotate(45)"><line class="hatch" x1="0" y1="0" x2="0" y2="6"/></pattern></defs>
<rect class="bg" width="640" height="360"/>
<text class="t1" x="20" y="32">Cheltenham homes sold within reach of a typical earner</text>
<text class="t2" x="20" y="52">% of sales at no more than 4.5 times median full-time pay</text>
<line class="grid" x1="48" x2="610" y1="300.0" y2="300.0"/>
<text class="ax" x="42" y="304.0" text-anchor="end">0%</text>
<line class="grid" x1="48" x2="610" y1="245.0" y2="245.0"/>
<text class="ax" x="42" y="249.0" text-anchor="end">4%</text>
<line class="grid" x1="48" x2="610" y1="190.0" y2="190.0"/>
<text class="ax" x="42" y="194.0" text-anchor="end">8%</text>
<line class="grid" x1="48" x2="610" y1="135.0" y2="135.0"/>
<text class="ax" x="42" y="139.0" text-anchor="end">12%</text>
<line class="grid" x1="48" x2="610" y1="80.0" y2="80.0"/>
<text class="ax" x="42" y="84.0" text-anchor="end">16%</text>
<polyline class="line" points="48.0,140.5 81.1,110.2 114.1,165.2 147.2,147.4 180.2,136.4 213.3,124.0 246.4,143.2 279.4,163.9 312.5,195.5 345.5,221.6 378.6,223.0 411.6,172.1 444.7,188.6 477.8,198.2 510.8,151.5 543.9,174.9 576.9,157.0 610.0,143.2"/>
<circle class="dot" cx="48.0" cy="140.5" r="4"/>
<text class="val" x="48.0" y="160.5" text-anchor="start">11.6%</text>
<circle class="dot" cx="81.1" cy="110.2" r="4"/>
<text class="ax" x="81.1" y="318" text-anchor="middle">2009</text>
<text class="val" x="81.1" y="100.2" text-anchor="middle">13.8%</text>
<circle class="dot" cx="114.1" cy="165.2" r="4"/>
<circle class="dot" cx="147.2" cy="147.4" r="4"/>
<text class="ax" x="147.2" y="318" text-anchor="middle">2011</text>
<circle class="dot" cx="180.2" cy="136.4" r="4"/>
<circle class="dot" cx="213.3" cy="124.0" r="4"/>
<text class="ax" x="213.3" y="318" text-anchor="middle">2013</text>
<circle class="dot" cx="246.4" cy="143.2" r="4"/>
<circle class="dot" cx="279.4" cy="163.9" r="4"/>
<text class="ax" x="279.4" y="318" text-anchor="middle">2015</text>
<circle class="dot" cx="312.5" cy="195.5" r="4"/>
<circle class="dot" cx="345.5" cy="221.6" r="4"/>
<text class="ax" x="345.5" y="318" text-anchor="middle">2017</text>
<circle class="dot" cx="378.6" cy="223.0" r="4"/>
<text class="val" x="378.6" y="243.0" text-anchor="middle">5.6%</text>
<circle class="dot" cx="411.6" cy="172.1" r="4"/>
<text class="ax" x="411.6" y="318" text-anchor="middle">2019</text>
<circle class="dot" cx="444.7" cy="188.6" r="4"/>
<circle class="dot" cx="477.8" cy="198.2" r="4"/>
<text class="ax" x="477.8" y="318" text-anchor="middle">2021</text>
<circle class="dot" cx="510.8" cy="151.5" r="4"/>
<circle class="dot" cx="543.9" cy="174.9" r="4"/>
<text class="ax" x="543.9" y="318" text-anchor="middle">2023</text>
<circle class="dot" cx="576.9" cy="157.0" r="4"/>
<circle class="dot" cx="610.0" cy="143.2" r="4"/>
<text class="ax" x="610.0" y="318" text-anchor="middle">2025</text>
<text class="val" x="610.0" y="133.2" text-anchor="end">11.4%</text>
<text class="src" x="20" y="346">Source: HM Land Registry; ONS ASHE via Nomis (OGL v3.0) · cheltenham-od.uk</text>
</svg>
